<svg width="43" height="23" viewBox="0 0 43 23" fill="none" xmlns="http://www.w3.org/2000/svg">
<rect opacity="0.3" x="0.5" y="0.5" width="42" height="22" rx="2.5" stroke="#7F8B98"/>
<path fill-rule="evenodd" clip-rule="evenodd" d="M17.5091 6C16.5968 6 16 6.6477 16 7.49945C16 8.33264 16.5795 9 17.4737 9H17.4916C18.4216 9 19 8.33277 19 7.49945C18.9825 6.6477 18.4216 6 17.5091 6ZM27 12.518V17H24.7073V12.8182C24.7073 11.7677 24.3757 11.0508 23.5458 11.0508C22.9123 11.0508 22.5353 11.534 22.3695 12.0013C22.309 12.1684 22.2934 12.401 22.2934 12.6348V17H20C20 17 20.0309 9.91743 20 9.18363H22.2932V10.2916C22.291 10.2955 22.2885 10.2995 22.286 10.3036C22.2832 10.3081 22.2805 10.3126 22.2781 10.3168H22.2932V10.2916C22.5979 9.75974 23.142 9 24.3599 9C25.8688 8.99997 27 10.1172 27 12.518ZM18 17H16V10H18V17Z" fill="#001832"/>
</svg>
